<svg width="350" height="106" viewBox="0 0 350 106" fill="none" xmlns="http://www.w3.org/2000/svg">
<rect x="1.5" y="1.5" width="347" height="103" rx="10.5" fill="white"/>
<rect x="18" y="15" width="243" height="24" fill="#FFD121"/>
<path d="M24.386 18.18H31.272V19.962H26.872V25.902H30.282V27.662H26.872V36H24.386V18.18ZM36.3018 36.176C35.3191 36.176 34.5564 35.9927 34.0138 35.626C33.4711 35.2447 33.0898 34.6873 32.8698 33.954C32.6498 33.2207 32.5398 32.2673 32.5398 31.094V28.19C32.5398 26.43 32.8111 25.1467 33.3538 24.34C33.9111 23.5187 34.8938 23.108 36.3018 23.108C37.3284 23.108 38.0984 23.3207 38.6118 23.746C39.1398 24.1713 39.4844 24.7727 39.6458 25.55C39.8218 26.3127 39.9098 27.3467 39.9098 28.652V29.686H34.8938V32.238C34.8938 33.0153 35.0038 33.58 35.2238 33.932C35.4584 34.2693 35.8251 34.438 36.3238 34.438C36.8224 34.438 37.1598 34.2693 37.3358 33.932C37.5118 33.58 37.5998 33.052 37.5998 32.348V31.578H39.8878V32.062C39.8878 33.3967 39.6018 34.416 39.0298 35.12C38.4578 35.824 37.5484 36.176 36.3018 36.176ZM37.5998 28.41V27.266C37.5998 26.4007 37.5118 25.7847 37.3358 25.418C37.1744 25.0367 36.8224 24.846 36.2798 24.846C35.8984 24.846 35.6051 24.934 35.3998 25.11C35.2091 25.286 35.0771 25.5793 35.0038 25.99C34.9304 26.386 34.8938 26.9653 34.8938 27.728V28.41H37.5998ZM45.5615 36.176C44.5788 36.176 43.8162 35.9927 43.2735 35.626C42.7308 35.2447 42.3495 34.6873 42.1295 33.954C41.9095 33.2207 41.7995 32.2673 41.7995 31.094V28.19C41.7995 26.43 42.0708 25.1467 42.6135 24.34C43.1708 23.5187 44.1535 23.108 45.5615 23.108C46.5882 23.108 47.3582 23.3207 47.8715 23.746C48.3995 24.1713 48.7442 24.7727 48.9055 25.55C49.0815 26.3127 49.1695 27.3467 49.1695 28.652V29.686H44.1535V32.238C44.1535 33.0153 44.2635 33.58 44.4835 33.932C44.7182 34.2693 45.0848 34.438 45.5835 34.438C46.0822 34.438 46.4195 34.2693 46.5955 33.932C46.7715 33.58 46.8595 33.052 46.8595 32.348V31.578H49.1475V32.062C49.1475 33.3967 48.8615 34.416 48.2895 35.12C47.7175 35.824 46.8082 36.176 45.5615 36.176ZM46.8595 28.41V27.266C46.8595 26.4007 46.7715 25.7847 46.5955 25.418C46.4342 25.0367 46.0822 24.846 45.5395 24.846C45.1582 24.846 44.8648 24.934 44.6595 25.11C44.4688 25.286 44.3368 25.5793 44.2635 25.99C44.1902 26.386 44.1535 26.9653 44.1535 27.728V28.41H46.8595ZM54.2493 36.176C53.1493 36.176 52.3426 35.78 51.8293 34.988C51.3159 34.1813 51.0593 32.854 51.0593 31.006V28.542C51.0593 26.8553 51.2793 25.528 51.7193 24.56C52.1739 23.592 52.9953 23.108 54.1833 23.108C54.9313 23.108 55.6353 23.438 56.2953 24.098V18.18H58.6493V36H56.2953V35.186C55.6793 35.846 54.9973 36.176 54.2493 36.176ZM54.8433 34.328C55.3126 34.328 55.7966 34.1667 56.2953 33.844V25.506C55.7526 25.1393 55.2539 24.956 54.7993 24.956C53.8753 24.956 53.4133 25.8433 53.4133 27.618V31.204C53.4133 32.2307 53.5086 33.008 53.6993 33.536C53.8899 34.064 54.2713 34.328 54.8433 34.328ZM69.449 36.176C67.6157 36.176 66.699 35.164 66.699 33.14V24.846H65.357V23.284H66.699V19.566H69.053V23.284H71.099V24.846H69.053V32.986C69.053 33.4993 69.1337 33.8587 69.295 34.064C69.4564 34.2693 69.7644 34.372 70.219 34.372C70.5124 34.372 70.7984 34.35 71.077 34.306V36.044C70.4904 36.132 69.9477 36.176 69.449 36.176ZM72.8946 18.18H75.2486V24.604C76.3046 23.6067 77.368 23.108 78.4386 23.108C79.128 23.108 79.612 23.3573 79.8906 23.856C80.184 24.3547 80.3306 24.9707 80.3306 25.704V36H77.9766V26.386C77.9766 25.902 77.9033 25.5427 77.7566 25.308C77.61 25.0733 77.346 24.956 76.9646 24.956C76.4513 24.956 75.8793 25.2347 75.2486 25.792V36H72.8946V18.18ZM86.1455 36.176C85.1628 36.176 84.4002 35.9927 83.8575 35.626C83.3148 35.2447 82.9335 34.6873 82.7135 33.954C82.4935 33.2207 82.3835 32.2673 82.3835 31.094V28.19C82.3835 26.43 82.6548 25.1467 83.1975 24.34C83.7548 23.5187 84.7375 23.108 86.1455 23.108C87.1722 23.108 87.9422 23.3207 88.4555 23.746C88.9835 24.1713 89.3282 24.7727 89.4895 25.55C89.6655 26.3127 89.7535 27.3467 89.7535 28.652V29.686H84.7375V32.238C84.7375 33.0153 84.8475 33.58 85.0675 33.932C85.3022 34.2693 85.6688 34.438 86.1675 34.438C86.6662 34.438 87.0035 34.2693 87.1795 33.932C87.3555 33.58 87.4435 33.052 87.4435 32.348V31.578H89.7315V32.062C89.7315 33.3967 89.4455 34.416 88.8735 35.12C88.3015 35.824 87.3922 36.176 86.1455 36.176ZM87.4435 28.41V27.266C87.4435 26.4007 87.3555 25.7847 87.1795 25.418C87.0182 25.0367 86.6662 24.846 86.1235 24.846C85.7422 24.846 85.4488 24.934 85.2435 25.11C85.0528 25.286 84.9208 25.5793 84.8475 25.99C84.7742 26.386 84.7375 26.9653 84.7375 27.728V28.41H87.4435ZM99.8606 36.176C98.7606 36.176 97.9539 35.78 97.4406 34.988C96.9273 34.1813 96.6706 32.854 96.6706 31.006V28.542C96.6706 26.8553 96.8906 25.528 97.3306 24.56C97.7853 23.592 98.6066 23.108 99.7946 23.108C100.543 23.108 101.247 23.438 101.907 24.098V18.18H104.261V36H101.907V35.186C101.291 35.846 100.609 36.176 99.8606 36.176ZM100.455 34.328C100.924 34.328 101.408 34.1667 101.907 33.844V25.506C101.364 25.1393 100.865 24.956 100.411 24.956C99.4866 24.956 99.0246 25.8433 99.0246 27.618V31.204C99.0246 32.2307 99.1199 33.008 99.3106 33.536C99.5013 34.064 99.8826 34.328 100.455 34.328ZM110.143 36.176C108.794 36.176 107.833 35.78 107.261 34.988C106.704 34.1813 106.425 33.0153 106.425 31.49V27.794C106.425 26.2687 106.704 25.11 107.261 24.318C107.833 23.5113 108.794 23.108 110.143 23.108C111.478 23.108 112.424 23.5113 112.981 24.318C113.553 25.11 113.839 26.2687 113.839 27.794V31.49C113.839 33.0153 113.553 34.1813 112.981 34.988C112.424 35.78 111.478 36.176 110.143 36.176ZM110.143 34.438C110.568 34.438 110.876 34.3133 111.067 34.064C111.258 33.8147 111.375 33.5067 111.419 33.14C111.463 32.7733 111.485 32.2747 111.485 31.644V27.662C111.485 27.0313 111.463 26.5327 111.419 26.166C111.375 25.7847 111.258 25.4693 111.067 25.22C110.876 24.9707 110.568 24.846 110.143 24.846C109.718 24.846 109.402 24.9707 109.197 25.22C109.006 25.4693 108.889 25.7847 108.845 26.166C108.801 26.5327 108.779 27.0313 108.779 27.662V31.644C108.779 32.2747 108.801 32.7733 108.845 33.14C108.889 33.5067 109.006 33.8147 109.197 34.064C109.402 34.3133 109.718 34.438 110.143 34.438ZM119.291 39.938C118.059 39.938 117.076 39.74 116.343 39.344C115.609 38.9627 115.243 38.3613 115.243 37.54C115.243 36.9827 115.411 36.4987 115.749 36.088C116.101 35.6773 116.541 35.3473 117.069 35.098C116.673 34.9807 116.365 34.7973 116.145 34.548C115.939 34.2987 115.837 34.0273 115.837 33.734C115.837 33.294 115.947 32.9127 116.167 32.59C116.387 32.2673 116.746 31.8787 117.245 31.424C116.746 31.0427 116.372 30.566 116.123 29.994C115.888 29.4073 115.771 28.6227 115.771 27.64C115.771 26.1587 116.071 25.0367 116.673 24.274C117.289 23.4967 118.183 23.108 119.357 23.108C120.031 23.108 120.581 23.2253 121.007 23.46C121.432 23.6947 121.755 24.0467 121.975 24.516C122.077 24.3547 122.29 24.142 122.613 23.878C122.95 23.5993 123.309 23.372 123.691 23.196L124.043 23.042L124.637 24.56C124.343 24.6187 123.933 24.7433 123.405 24.934C122.891 25.1247 122.583 25.2713 122.481 25.374C122.583 25.638 122.671 26.0047 122.745 26.474C122.833 26.9433 122.877 27.354 122.877 27.706C122.877 29.0993 122.605 30.1847 122.063 30.962C121.52 31.7247 120.618 32.106 119.357 32.106C118.961 32.106 118.557 32.0547 118.147 31.952C117.868 32.3627 117.729 32.6853 117.729 32.92C117.729 33.0813 117.809 33.2133 117.971 33.316C118.147 33.404 118.418 33.4627 118.785 33.492L120.765 33.668C121.762 33.756 122.503 34.0567 122.987 34.57C123.471 35.0833 123.713 35.8167 123.713 36.77C123.713 38.882 122.239 39.938 119.291 39.938ZM119.357 30.456C119.987 30.456 120.398 30.236 120.589 29.796C120.779 29.356 120.875 28.6373 120.875 27.64C120.875 26.628 120.779 25.8947 120.589 25.44C120.398 24.9707 119.995 24.736 119.379 24.736C118.763 24.736 118.345 24.9707 118.125 25.44C117.919 25.8947 117.817 26.628 117.817 27.64C117.817 28.5493 117.919 29.246 118.125 29.73C118.345 30.214 118.755 30.456 119.357 30.456ZM119.467 38.09C120.303 38.09 120.919 37.9873 121.315 37.782C121.711 37.5913 121.909 37.276 121.909 36.836C121.909 36.4253 121.784 36.1247 121.535 35.934C121.285 35.7287 120.831 35.5967 120.171 35.538L118.169 35.362C117.861 35.67 117.626 35.9413 117.465 36.176C117.303 36.4107 117.223 36.6673 117.223 36.946C117.223 37.342 117.384 37.628 117.707 37.804C118.044 37.9947 118.631 38.09 119.467 38.09Z" fill="#101010"/>
<path d="M23 77.2C22.0667 77.2 21.32 77.0133 20.76 76.64C20.2133 76.2533 19.8133 75.72 19.56 75.04C19.3067 74.36 19.18 73.5667 19.18 72.66C19.18 71.9533 19.2467 71.3667 19.38 70.9C19.5267 70.42 19.7133 70.0267 19.94 69.72C20.1667 69.4133 20.42 69.1667 20.7 68.98C20.98 68.7933 21.2533 68.6333 21.52 68.5C20.8667 68.2333 20.34 67.7933 19.94 67.18C19.54 66.5533 19.34 65.7267 19.34 64.7C19.34 63.9133 19.46 63.2133 19.7 62.6C19.94 61.9867 20.3267 61.5067 20.86 61.16C21.4067 60.8133 22.12 60.64 23 60.64C23.88 60.64 24.5867 60.82 25.12 61.18C25.6533 61.5267 26.0333 62.0067 26.26 62.62C26.5 63.2333 26.62 63.94 26.62 64.74C26.62 65.7667 26.42 66.58 26.02 67.18C25.6333 67.78 25.1133 68.22 24.46 68.5C24.7267 68.6333 25 68.7933 25.28 68.98C25.56 69.1667 25.8067 69.4133 26.02 69.72C26.2467 70.0267 26.4333 70.42 26.58 70.9C26.7267 71.3667 26.8 71.9533 26.8 72.66C26.8 73.5667 26.6733 74.36 26.42 75.04C26.18 75.72 25.78 76.2533 25.22 76.64C24.66 77.0133 23.92 77.2 23 77.2ZM23 76.02C23.5333 76.02 23.9733 75.9 24.32 75.66C24.6667 75.42 24.9267 75.0533 25.1 74.56C25.2733 74.0533 25.36 73.42 25.36 72.66C25.36 71.9933 25.28 71.4133 25.12 70.92C24.9733 70.4133 24.7267 70.0067 24.38 69.7C24.0467 69.3933 23.5867 69.22 23 69.18C22.4133 69.22 21.94 69.3933 21.58 69.7C21.2333 70.0067 20.98 70.4133 20.82 70.92C20.6733 71.4133 20.6 71.9933 20.6 72.66C20.6 73.42 20.6867 74.0533 20.86 74.56C21.0467 75.0533 21.3133 75.42 21.66 75.66C22.02 75.9 22.4667 76.02 23 76.02ZM23 67.84C23.56 67.8133 23.9933 67.66 24.3 67.38C24.62 67.1 24.8467 66.7267 24.98 66.26C25.1133 65.78 25.18 65.2533 25.18 64.68C25.18 63.7467 25.0067 63.04 24.66 62.56C24.3133 62.0667 23.76 61.82 23 61.82C22.2267 61.82 21.66 62.0667 21.3 62.56C20.9533 63.04 20.78 63.7467 20.78 64.68C20.78 65.2533 20.8467 65.78 20.98 66.26C21.1133 66.7267 21.34 67.1 21.66 67.38C21.9933 67.66 22.44 67.8133 23 67.84ZM29.3605 68.54V66.4H30.9205V68.54H29.3605ZM29.3605 75.32V73.2H30.9205V75.32H29.3605ZM37.0077 77.2C36.0477 77.2 35.2877 76.9933 34.7277 76.58C34.1677 76.1667 33.7677 75.6 33.5277 74.88C33.2877 74.16 33.1677 73.34 33.1677 72.42V65.38C33.1677 64.4467 33.2877 63.6267 33.5277 62.92C33.781 62.2 34.1877 61.64 34.7477 61.24C35.321 60.84 36.0743 60.64 37.0077 60.64C37.9677 60.64 38.7277 60.84 39.2877 61.24C39.861 61.64 40.2677 62.2 40.5077 62.92C40.761 63.6267 40.8877 64.4467 40.8877 65.38V72.42C40.8877 73.3533 40.761 74.18 40.5077 74.9C40.2677 75.62 39.8677 76.1867 39.3077 76.6C38.7477 77 37.981 77.2 37.0077 77.2ZM37.0077 76.04C37.6343 76.04 38.1143 75.88 38.4477 75.56C38.7943 75.24 39.0343 74.82 39.1677 74.3C39.3143 73.7667 39.3877 73.18 39.3877 72.54V65.28C39.3877 64.6267 39.3143 64.04 39.1677 63.52C39.0343 62.9867 38.801 62.5667 38.4677 62.26C38.1343 61.9533 37.6477 61.8 37.0077 61.8C36.3943 61.8 35.9143 61.9533 35.5677 62.26C35.2343 62.5667 34.9943 62.9867 34.8477 63.52C34.7143 64.04 34.6477 64.6267 34.6477 65.28V72.54C34.6477 73.18 34.7143 73.7667 34.8477 74.3C34.9943 74.82 35.241 75.24 35.5877 75.56C35.9343 75.88 36.4077 76.04 37.0077 76.04ZM47.3397 77.2C46.3797 77.2 45.6197 76.9933 45.0597 76.58C44.4997 76.1667 44.0997 75.6 43.8597 74.88C43.6197 74.16 43.4997 73.34 43.4997 72.42V65.38C43.4997 64.4467 43.6197 63.6267 43.8597 62.92C44.113 62.2 44.5197 61.64 45.0797 61.24C45.653 60.84 46.4064 60.64 47.3397 60.64C48.2997 60.64 49.0597 60.84 49.6197 61.24C50.193 61.64 50.5997 62.2 50.8397 62.92C51.093 63.6267 51.2197 64.4467 51.2197 65.38V72.42C51.2197 73.3533 51.093 74.18 50.8397 74.9C50.5997 75.62 50.1997 76.1867 49.6397 76.6C49.0797 77 48.313 77.2 47.3397 77.2ZM47.3397 76.04C47.9664 76.04 48.4464 75.88 48.7797 75.56C49.1264 75.24 49.3664 74.82 49.4997 74.3C49.6464 73.7667 49.7197 73.18 49.7197 72.54V65.28C49.7197 64.6267 49.6464 64.04 49.4997 63.52C49.3664 62.9867 49.133 62.5667 48.7997 62.26C48.4664 61.9533 47.9797 61.8 47.3397 61.8C46.7264 61.8 46.2464 61.9533 45.8997 62.26C45.5664 62.5667 45.3264 62.9867 45.1797 63.52C45.0464 64.04 44.9797 64.6267 44.9797 65.28V72.54C44.9797 73.18 45.0464 73.7667 45.1797 74.3C45.3264 74.82 45.573 75.24 45.9197 75.56C46.2664 75.88 46.7397 76.04 47.3397 76.04ZM57.1338 77L60.5538 60.8H62.1538L65.5938 77H64.0938L63.2938 72.66H59.4338L58.6138 77H57.1338ZM59.6538 71.56H63.0938L61.3738 62.82L59.6538 71.56ZM67.405 77L67.805 60.8H69.325L72.525 74.86L75.785 60.8H77.305L77.705 77H76.445L76.125 64.1L73.025 77H72.045L68.985 64.12L68.665 77H67.405Z" fill="#101010"/>
<rect x="292.5" y="35.5" width="35" height="35" rx="8.5" fill="white" stroke="black" stroke-width="3"/>
<rect x="1.5" y="1.5" width="347" height="103" rx="10.5" stroke="#101010" stroke-width="3"/>
</svg>
