<svg id="visual" viewBox="0 0 900 600" width="900" height="600" xmlns="http://www.w3.org/2000/svg" xmlns:xlink="http://www.w3.org/1999/xlink" version="1.1"><g transform="translate(434.3532737359254 347.91129467675887)"><path d="M167 -206.1C205.4 -166.8 217.9 -103.7 219.8 -45.7C221.8 12.2 213.1 65.1 181.1 89.5C149.1 113.9 93.8 109.8 48.5 120.8C3.3 131.9 -31.9 158 -71.5 159.6C-111.1 161.1 -155.1 138.1 -174.8 101.9C-194.5 65.8 -189.8 16.6 -182.3 -33.2C-174.9 -83 -164.6 -133.4 -133.7 -174.2C-102.8 -214.9 -51.4 -246 6.4 -253.6C64.3 -261.3 128.6 -245.5 167 -206.1" fill="none" stroke="#FFD121" stroke-width="7"></path></g></svg>