<svg id="visual" viewBox="0 0 400 400" width="400" height="400" xmlns="http://www.w3.org/2000/svg" xmlns:xlink="http://www.w3.org/1999/xlink" version="1.1"><g transform="translate(205.04737522001562 174.3564886974551)"><path d="M82.5 -104.2C119.1 -86.9 169.4 -79.1 179.5 -56.4C189.6 -33.6 159.5 4.2 134.7 32.4C109.9 60.6 90.5 79.3 69 111.8C47.4 144.3 23.7 190.6 -12.6 208C-49 225.4 -98 213.8 -135.5 186.5C-173.1 159.2 -199.2 116.2 -189.6 77.7C-180 39.2 -134.6 5.1 -116.5 -33.9C-98.4 -73 -107.7 -117 -92.8 -141.3C-78 -165.7 -39 -170.3 -8 -159.3C22.9 -148.2 45.8 -121.4 82.5 -104.2" fill="none" stroke="#FFD121" stroke-width="9"></path></g></svg>