<svg width="350" height="106" viewBox="0 0 350 106" fill="none" xmlns="http://www.w3.org/2000/svg">
<g clip-path="url(#clip0_7_75)">
<rect width="350" height="106" rx="12" fill="white"/>
<rect x="18" y="15" width="243" height="24" fill="#FFD121"/>
<path d="M23.386 36V18.18H30.294V20.028H25.872V25.924H29.458V27.684H25.872V34.218H30.338V36H23.386ZM32.147 36V23.284H34.325V24.494C34.7503 24.01 35.2197 23.6507 35.733 23.416C36.2463 23.1813 36.7743 23.064 37.317 23.064C37.7863 23.064 38.2043 23.1813 38.571 23.416C38.9523 23.6507 39.2237 24.0687 39.385 24.67C39.8397 24.1127 40.331 23.7093 40.859 23.46C41.4017 23.196 41.9663 23.064 42.553 23.064C42.9637 23.064 43.3377 23.1667 43.675 23.372C44.0123 23.5627 44.2837 23.878 44.489 24.318C44.6943 24.7433 44.797 25.308 44.797 26.012V36H42.641V26.166C42.641 25.55 42.5383 25.1393 42.333 24.934C42.1423 24.714 41.8783 24.604 41.541 24.604C41.2183 24.604 40.881 24.6993 40.529 24.89C40.177 25.066 39.8543 25.3153 39.561 25.638C39.561 25.6967 39.561 25.7553 39.561 25.814C39.561 25.8727 39.561 25.9387 39.561 26.012V36H37.405V26.166C37.405 25.55 37.3023 25.1393 37.097 24.934C36.9063 24.714 36.6423 24.604 36.305 24.604C35.9823 24.604 35.645 24.6993 35.293 24.89C34.9557 25.066 34.633 25.3153 34.325 25.638V36H32.147ZM47.1001 40.18V23.284H49.4541V24.296C49.7328 23.9733 50.0701 23.6947 50.4661 23.46C50.8621 23.2253 51.3314 23.108 51.8741 23.108C52.5341 23.108 53.0548 23.284 53.4361 23.636C53.8321 23.9733 54.1254 24.406 54.3161 24.934C54.5068 25.4473 54.6314 25.9753 54.6901 26.518C54.7488 27.046 54.7781 27.5007 54.7781 27.882V30.962C54.7781 31.8567 54.6901 32.7073 54.5141 33.514C54.3381 34.306 54.0154 34.9513 53.5461 35.45C53.0914 35.934 52.4461 36.176 51.6101 36.176C51.1554 36.176 50.7521 36.066 50.4001 35.846C50.0481 35.6113 49.7328 35.3473 49.4541 35.054V40.18H47.1001ZM51.1481 34.328C51.5588 34.328 51.8521 34.1813 52.0281 33.888C52.2041 33.58 52.3141 33.1693 52.3581 32.656C52.4021 32.1427 52.4241 31.578 52.4241 30.962V27.882C52.4241 27.354 52.3948 26.87 52.3361 26.43C52.2774 25.9753 52.1528 25.616 51.9621 25.352C51.7714 25.088 51.4708 24.956 51.0601 24.956C50.7521 24.956 50.4588 25.022 50.1801 25.154C49.9014 25.286 49.6594 25.44 49.4541 25.616V33.756C49.6741 33.9173 49.9234 34.0567 50.2021 34.174C50.4808 34.2767 50.7961 34.328 51.1481 34.328ZM60.3065 36.176C59.6465 36.176 59.1111 36.0513 58.7005 35.802C58.3045 35.5527 58.0111 35.2007 57.8205 34.746C57.6445 34.2913 57.5565 33.756 57.5565 33.14V24.846H56.2145V23.284H57.5565V19.566H59.9105V23.284H61.9565V24.846H59.9105V32.986C59.9105 33.4847 59.9911 33.844 60.1525 34.064C60.3138 34.2693 60.6218 34.372 61.0765 34.372C61.1938 34.372 61.3258 34.3647 61.4725 34.35C61.6338 34.3353 61.7878 34.3207 61.9345 34.306V36.044C61.6411 36.088 61.3698 36.1173 61.1205 36.132C60.8711 36.1613 60.5998 36.176 60.3065 36.176ZM63.488 39.19V37.386C64.06 37.386 64.5147 37.3567 64.852 37.298C65.1894 37.254 65.4314 37.1587 65.578 37.012C65.7247 36.88 65.798 36.6893 65.798 36.44C65.798 36.308 65.7467 36.0147 65.644 35.56C65.5414 35.1053 65.4314 34.6213 65.314 34.108L62.762 23.284H65.138L66.854 32.788L68.504 23.284H70.88L67.844 36.704C67.712 37.32 67.47 37.804 67.118 38.156C66.766 38.5227 66.3114 38.7867 65.754 38.948C65.2114 39.1093 64.5514 39.19 63.774 39.19H63.488ZM80.7166 36.176C80.0566 36.176 79.5213 36.0513 79.1106 35.802C78.7146 35.5527 78.4213 35.2007 78.2306 34.746C78.0546 34.2913 77.9666 33.756 77.9666 33.14V24.846H76.6246V23.284H77.9666V19.566H80.3206V23.284H82.3666V24.846H80.3206V32.986C80.3206 33.4847 80.4013 33.844 80.5626 34.064C80.724 34.2693 81.032 34.372 81.4866 34.372C81.604 34.372 81.736 34.3647 81.8826 34.35C82.044 34.3353 82.198 34.3207 82.3446 34.306V36.044C82.0513 36.088 81.78 36.1173 81.5306 36.132C81.2813 36.1613 81.01 36.176 80.7166 36.176ZM84.1622 36V18.18H86.5162V24.604C86.9415 24.1933 87.4182 23.8413 87.9462 23.548C88.4742 23.2547 89.0609 23.108 89.7062 23.108C90.2049 23.108 90.5862 23.24 90.8502 23.504C91.1289 23.768 91.3195 24.098 91.4222 24.494C91.5395 24.89 91.5982 25.2933 91.5982 25.704V36H89.2442V26.386C89.2442 25.9313 89.1782 25.5793 89.0462 25.33C88.9142 25.0807 88.6429 24.956 88.2322 24.956C87.9535 24.956 87.6602 25.0367 87.3522 25.198C87.0589 25.3593 86.7802 25.5573 86.5162 25.792V36H84.1622ZM97.4131 36.176C96.4157 36.176 95.6457 35.9853 95.1031 35.604C94.5604 35.208 94.1791 34.636 93.9591 33.888C93.7537 33.1253 93.6511 32.194 93.6511 31.094V28.19C93.6511 27.0607 93.7611 26.122 93.9811 25.374C94.2011 24.626 94.5824 24.0613 95.1251 23.68C95.6824 23.2987 96.4451 23.108 97.4131 23.108C98.4837 23.108 99.2684 23.328 99.7671 23.768C100.28 24.208 100.618 24.846 100.779 25.682C100.94 26.5033 101.021 27.4933 101.021 28.652V29.686H96.0051V32.238C96.0051 32.7513 96.0491 33.1693 96.1371 33.492C96.2397 33.8147 96.3937 34.0567 96.5991 34.218C96.8191 34.3647 97.0977 34.438 97.4351 34.438C97.7871 34.438 98.0511 34.3573 98.2271 34.196C98.4177 34.02 98.5424 33.778 98.6011 33.47C98.6744 33.1473 98.7111 32.7733 98.7111 32.348V31.578H100.999V32.062C100.999 33.338 100.728 34.3427 100.185 35.076C99.6424 35.8093 98.7184 36.176 97.4131 36.176ZM96.0051 28.41H98.7111V27.266C98.7111 26.738 98.6817 26.298 98.6231 25.946C98.5644 25.5793 98.4397 25.308 98.2491 25.132C98.0731 24.9413 97.7871 24.846 97.3911 24.846C97.0097 24.846 96.7164 24.934 96.5111 25.11C96.3204 25.286 96.1884 25.5867 96.1151 26.012C96.0417 26.4227 96.0051 26.9947 96.0051 27.728V28.41ZM111.128 36.176C110.058 36.176 109.258 35.7873 108.73 35.01C108.202 34.218 107.938 32.8833 107.938 31.006V28.542C107.938 27.574 108.019 26.6793 108.18 25.858C108.342 25.022 108.642 24.3547 109.082 23.856C109.537 23.3573 110.197 23.108 111.062 23.108C111.488 23.108 111.876 23.2033 112.228 23.394C112.58 23.5847 112.896 23.8193 113.174 24.098V18.18H115.528V36H113.174V35.186C112.896 35.4793 112.588 35.7213 112.25 35.912C111.928 36.088 111.554 36.176 111.128 36.176ZM111.722 34.328C111.942 34.328 112.177 34.2913 112.426 34.218C112.676 34.13 112.925 34.0053 113.174 33.844V25.506C112.969 25.3593 112.742 25.2347 112.492 25.132C112.243 25.0147 111.972 24.956 111.678 24.956C111.136 24.956 110.769 25.22 110.578 25.748C110.388 26.2613 110.292 26.8847 110.292 27.618V31.204C110.292 31.7907 110.322 32.326 110.38 32.81C110.454 33.2793 110.593 33.6533 110.798 33.932C111.004 34.196 111.312 34.328 111.722 34.328ZM118.067 36V23.284H120.421V36H118.067ZM118.067 21.392V18.928H120.421V21.392H118.067ZM125.888 36.176C124.847 36.176 124.011 35.8533 123.38 35.208C122.749 34.548 122.39 33.6827 122.302 32.612L124.26 32.018C124.377 32.8247 124.575 33.4333 124.854 33.844C125.133 34.24 125.543 34.438 126.086 34.438C126.511 34.438 126.834 34.3207 127.054 34.086C127.274 33.8367 127.384 33.5067 127.384 33.096C127.384 32.7293 127.303 32.3993 127.142 32.106C126.981 31.8127 126.717 31.512 126.35 31.204L124.172 29.334C123.732 28.9527 123.358 28.5273 123.05 28.058C122.757 27.5887 122.61 26.98 122.61 26.232C122.61 25.5573 122.742 24.9927 123.006 24.538C123.285 24.0687 123.666 23.7167 124.15 23.482C124.649 23.2327 125.228 23.108 125.888 23.108C126.9 23.108 127.67 23.438 128.198 24.098C128.741 24.7433 129.049 25.528 129.122 26.452L127.538 27.046C127.479 26.606 127.391 26.2247 127.274 25.902C127.157 25.5647 126.995 25.308 126.79 25.132C126.585 24.9413 126.313 24.846 125.976 24.846C125.595 24.846 125.287 24.978 125.052 25.242C124.832 25.4913 124.722 25.792 124.722 26.144C124.722 26.364 124.766 26.584 124.854 26.804C124.957 27.0093 125.125 27.2147 125.36 27.42L127.604 29.488C127.912 29.7667 128.198 30.0673 128.462 30.39C128.741 30.7127 128.968 31.0793 129.144 31.49C129.32 31.9007 129.408 32.3773 129.408 32.92C129.408 33.6387 129.261 34.24 128.968 34.724C128.675 35.208 128.264 35.5747 127.736 35.824C127.208 36.0587 126.592 36.176 125.888 36.176ZM131.234 36V18.18H133.588V24.604C134.014 24.1933 134.49 23.8413 135.018 23.548C135.546 23.2547 136.133 23.108 136.778 23.108C137.277 23.108 137.658 23.24 137.922 23.504C138.201 23.768 138.392 24.098 138.494 24.494C138.612 24.89 138.67 25.2933 138.67 25.704V36H136.316V26.386C136.316 25.9313 136.25 25.5793 136.118 25.33C135.986 25.0807 135.715 24.956 135.304 24.956C135.026 24.956 134.732 25.0367 134.424 25.198C134.131 25.3593 133.852 25.5573 133.588 25.792V36H131.234ZM142.439 36L140.393 23.284H142.329L143.649 32.656L145.343 23.284H147.147L148.841 32.612L150.161 23.284H152.097L149.985 36H148.005L146.267 27.024L144.551 36H142.439ZM156.187 36.176C155.688 36.176 155.248 36.0367 154.867 35.758C154.486 35.4647 154.185 35.098 153.965 34.658C153.745 34.2033 153.635 33.7267 153.635 33.228C153.635 32.436 153.767 31.7687 154.031 31.226C154.295 30.6833 154.654 30.2287 155.109 29.862C155.578 29.4807 156.114 29.1507 156.715 28.872C157.331 28.5933 157.976 28.322 158.651 28.058V27.156C158.651 26.6427 158.622 26.2173 158.563 25.88C158.504 25.5427 158.38 25.2933 158.189 25.132C158.013 24.956 157.742 24.868 157.375 24.868C157.052 24.868 156.788 24.9413 156.583 25.088C156.392 25.2347 156.253 25.4473 156.165 25.726C156.077 25.99 156.033 26.3053 156.033 26.672V27.31L153.701 27.222C153.73 25.814 154.053 24.78 154.669 24.12C155.285 23.4453 156.238 23.108 157.529 23.108C158.79 23.108 159.685 23.4527 160.213 24.142C160.741 24.8313 161.005 25.8287 161.005 27.134V32.942C161.005 33.338 161.012 33.7193 161.027 34.086C161.056 34.4527 161.086 34.7973 161.115 35.12C161.159 35.428 161.196 35.7213 161.225 36H159.069C159.025 35.7653 158.966 35.472 158.893 35.12C158.834 34.7533 158.79 34.4233 158.761 34.13C158.614 34.6287 158.328 35.098 157.903 35.538C157.492 35.9633 156.92 36.176 156.187 36.176ZM157.111 34.152C157.346 34.152 157.566 34.086 157.771 33.954C157.976 33.822 158.16 33.6753 158.321 33.514C158.482 33.338 158.592 33.1987 158.651 33.096V29.488C158.284 29.6933 157.94 29.8987 157.617 30.104C157.294 30.3093 157.008 30.5293 156.759 30.764C156.524 30.984 156.334 31.2407 156.187 31.534C156.055 31.8127 155.989 32.1353 155.989 32.502C155.989 33.0153 156.084 33.4187 156.275 33.712C156.466 34.0053 156.744 34.152 157.111 34.152ZM166.214 36.176C165.173 36.176 164.337 35.8533 163.706 35.208C163.075 34.548 162.716 33.6827 162.628 32.612L164.586 32.018C164.703 32.8247 164.901 33.4333 165.18 33.844C165.459 34.24 165.869 34.438 166.412 34.438C166.837 34.438 167.16 34.3207 167.38 34.086C167.6 33.8367 167.71 33.5067 167.71 33.096C167.71 32.7293 167.629 32.3993 167.468 32.106C167.307 31.8127 167.043 31.512 166.676 31.204L164.498 29.334C164.058 28.9527 163.684 28.5273 163.376 28.058C163.083 27.5887 162.936 26.98 162.936 26.232C162.936 25.5573 163.068 24.9927 163.332 24.538C163.611 24.0687 163.992 23.7167 164.476 23.482C164.975 23.2327 165.554 23.108 166.214 23.108C167.226 23.108 167.996 23.438 168.524 24.098C169.067 24.7433 169.375 25.528 169.448 26.452L167.864 27.046C167.805 26.606 167.717 26.2247 167.6 25.902C167.483 25.5647 167.321 25.308 167.116 25.132C166.911 24.9413 166.639 24.846 166.302 24.846C165.921 24.846 165.613 24.978 165.378 25.242C165.158 25.4913 165.048 25.792 165.048 26.144C165.048 26.364 165.092 26.584 165.18 26.804C165.283 27.0093 165.451 27.2147 165.686 27.42L167.93 29.488C168.238 29.7667 168.524 30.0673 168.788 30.39C169.067 30.7127 169.294 31.0793 169.47 31.49C169.646 31.9007 169.734 32.3773 169.734 32.92C169.734 33.6387 169.587 34.24 169.294 34.724C169.001 35.208 168.59 35.5747 168.062 35.824C167.534 36.0587 166.918 36.176 166.214 36.176ZM171.561 36V18.18H173.915V24.604C174.34 24.1933 174.817 23.8413 175.345 23.548C175.873 23.2547 176.459 23.108 177.105 23.108C177.603 23.108 177.985 23.24 178.249 23.504C178.527 23.768 178.718 24.098 178.821 24.494C178.938 24.89 178.997 25.2933 178.997 25.704V36H176.643V26.386C176.643 25.9313 176.577 25.5793 176.445 25.33C176.313 25.0807 176.041 24.956 175.631 24.956C175.352 24.956 175.059 25.0367 174.751 25.198C174.457 25.3593 174.179 25.5573 173.915 25.792V36H171.561ZM184.812 36.176C183.814 36.176 183.044 35.9853 182.502 35.604C181.959 35.208 181.578 34.636 181.358 33.888C181.152 33.1253 181.05 32.194 181.05 31.094V28.19C181.05 27.0607 181.16 26.122 181.38 25.374C181.6 24.626 181.981 24.0613 182.524 23.68C183.081 23.2987 183.844 23.108 184.812 23.108C185.882 23.108 186.667 23.328 187.166 23.768C187.679 24.208 188.016 24.846 188.178 25.682C188.339 26.5033 188.42 27.4933 188.42 28.652V29.686H183.404V32.238C183.404 32.7513 183.448 33.1693 183.536 33.492C183.638 33.8147 183.792 34.0567 183.998 34.218C184.218 34.3647 184.496 34.438 184.834 34.438C185.186 34.438 185.45 34.3573 185.626 34.196C185.816 34.02 185.941 33.778 186 33.47C186.073 33.1473 186.11 32.7733 186.11 32.348V31.578H188.398V32.062C188.398 33.338 188.126 34.3427 187.584 35.076C187.041 35.8093 186.117 36.176 184.812 36.176ZM183.404 28.41H186.11V27.266C186.11 26.738 186.08 26.298 186.022 25.946C185.963 25.5793 185.838 25.308 185.648 25.132C185.472 24.9413 185.186 24.846 184.79 24.846C184.408 24.846 184.115 24.934 183.91 25.11C183.719 25.286 183.587 25.5867 183.514 26.012C183.44 26.4227 183.404 26.9947 183.404 27.728V28.41ZM190.617 36V23.284H192.971V25.088C193.441 24.3107 193.91 23.79 194.379 23.526C194.849 23.262 195.318 23.13 195.787 23.13C195.846 23.13 195.897 23.13 195.941 23.13C196 23.13 196.073 23.1373 196.161 23.152V25.748C195.985 25.6747 195.78 25.616 195.545 25.572C195.325 25.5133 195.098 25.484 194.863 25.484C194.497 25.484 194.159 25.572 193.851 25.748C193.558 25.9093 193.265 26.232 192.971 26.716V36H190.617Z" fill="#101010"/>
<path d="M25.06 77.2C24.1667 77.2 23.4467 77 22.9 76.6C22.3533 76.1867 21.9533 75.6 21.7 74.84C21.4467 74.0667 21.32 73.16 21.32 72.12V65.66C21.32 64.66 21.44 63.7867 21.68 63.04C21.92 62.28 22.3133 61.6933 22.86 61.28C23.4067 60.8533 24.1333 60.64 25.04 60.64C25.8533 60.64 26.5267 60.78 27.06 61.06C27.5933 61.34 27.9933 61.76 28.26 62.32C28.54 62.8667 28.68 63.5533 28.68 64.38C28.68 64.4067 28.68 64.4667 28.68 64.56C28.6933 64.64 28.7 64.6933 28.7 64.72H27.24C27.24 63.68 27.0733 62.94 26.74 62.5C26.42 62.06 25.8733 61.84 25.1 61.84C24.6467 61.84 24.2467 61.9533 23.9 62.18C23.5533 62.3933 23.28 62.7533 23.08 63.26C22.88 63.7667 22.78 64.4533 22.78 65.32V68.38C23.02 68.1533 23.3667 67.94 23.82 67.74C24.2867 67.54 24.8067 67.44 25.38 67.44C26.2733 67.44 26.9733 67.6067 27.48 67.94C27.9867 68.2733 28.3467 68.7933 28.56 69.5C28.7733 70.2067 28.88 71.1267 28.88 72.26C28.88 73.2467 28.7533 74.1133 28.5 74.86C28.2467 75.6067 27.84 76.1867 27.28 76.6C26.7333 77 25.9933 77.2 25.06 77.2ZM25.06 75.98C25.5933 75.98 26.0267 75.8667 26.36 75.64C26.7067 75.4 26.9667 75.0267 27.14 74.52C27.3133 74.0133 27.4 73.3533 27.4 72.54C27.4 71.66 27.3467 70.9267 27.24 70.34C27.1467 69.7533 26.9333 69.3133 26.6 69.02C26.28 68.7267 25.7667 68.58 25.06 68.58C24.74 68.58 24.4333 68.6333 24.14 68.74C23.8467 68.8333 23.58 68.9533 23.34 69.1C23.1 69.2333 22.9133 69.3667 22.78 69.5V72.3C22.78 73.1667 22.86 73.8733 23.02 74.42C23.18 74.9533 23.4267 75.3467 23.76 75.6C24.1067 75.8533 24.54 75.98 25.06 75.98ZM31.3605 68.54V66.4H32.9205V68.54H31.3605ZM31.3605 75.32V73.2H32.9205V75.32H31.3605ZM39.0077 77.2C38.0477 77.2 37.2877 76.9933 36.7277 76.58C36.1677 76.1667 35.7677 75.6 35.5277 74.88C35.2877 74.16 35.1677 73.34 35.1677 72.42V65.38C35.1677 64.4467 35.2877 63.6267 35.5277 62.92C35.781 62.2 36.1877 61.64 36.7477 61.24C37.321 60.84 38.0743 60.64 39.0077 60.64C39.9677 60.64 40.7277 60.84 41.2877 61.24C41.861 61.64 42.2677 62.2 42.5077 62.92C42.761 63.6267 42.8877 64.4467 42.8877 65.38V72.42C42.8877 73.3533 42.761 74.18 42.5077 74.9C42.2677 75.62 41.8677 76.1867 41.3077 76.6C40.7477 77 39.981 77.2 39.0077 77.2ZM39.0077 76.04C39.6343 76.04 40.1143 75.88 40.4477 75.56C40.7943 75.24 41.0343 74.82 41.1677 74.3C41.3143 73.7667 41.3877 73.18 41.3877 72.54V65.28C41.3877 64.6267 41.3143 64.04 41.1677 63.52C41.0343 62.9867 40.801 62.5667 40.4677 62.26C40.1343 61.9533 39.6477 61.8 39.0077 61.8C38.3943 61.8 37.9143 61.9533 37.5677 62.26C37.2343 62.5667 36.9943 62.9867 36.8477 63.52C36.7143 64.04 36.6477 64.6267 36.6477 65.28V72.54C36.6477 73.18 36.7143 73.7667 36.8477 74.3C36.9943 74.82 37.241 75.24 37.5877 75.56C37.9343 75.88 38.4077 76.04 39.0077 76.04ZM49.3397 77.2C48.3797 77.2 47.6197 76.9933 47.0597 76.58C46.4997 76.1667 46.0997 75.6 45.8597 74.88C45.6197 74.16 45.4997 73.34 45.4997 72.42V65.38C45.4997 64.4467 45.6197 63.6267 45.8597 62.92C46.113 62.2 46.5197 61.64 47.0797 61.24C47.653 60.84 48.4064 60.64 49.3397 60.64C50.2997 60.64 51.0597 60.84 51.6197 61.24C52.193 61.64 52.5997 62.2 52.8397 62.92C53.093 63.6267 53.2197 64.4467 53.2197 65.38V72.42C53.2197 73.3533 53.093 74.18 52.8397 74.9C52.5997 75.62 52.1997 76.1867 51.6397 76.6C51.0797 77 50.313 77.2 49.3397 77.2ZM49.3397 76.04C49.9664 76.04 50.4464 75.88 50.7797 75.56C51.1264 75.24 51.3664 74.82 51.4997 74.3C51.6464 73.7667 51.7197 73.18 51.7197 72.54V65.28C51.7197 64.6267 51.6464 64.04 51.4997 63.52C51.3664 62.9867 51.133 62.5667 50.7997 62.26C50.4664 61.9533 49.9797 61.8 49.3397 61.8C48.7264 61.8 48.2464 61.9533 47.8997 62.26C47.5664 62.5667 47.3264 62.9867 47.1797 63.52C47.0464 64.04 46.9797 64.6267 46.9797 65.28V72.54C46.9797 73.18 47.0464 73.7667 47.1797 74.3C47.3264 74.82 47.573 75.24 47.9197 75.56C48.2664 75.88 48.7397 76.04 49.3397 76.04ZM60.0138 77V60.8H63.8938C64.8671 60.8 65.6338 60.98 66.1938 61.34C66.7538 61.7 67.1471 62.2 67.3738 62.84C67.6138 63.48 67.7338 64.2333 67.7338 65.1C67.7338 65.86 67.6071 66.5667 67.3538 67.22C67.1138 67.86 66.7071 68.3733 66.1338 68.76C65.5738 69.1467 64.8338 69.34 63.9138 69.34H61.5337V77H60.0138ZM61.5337 68.2H63.4738C64.1271 68.2 64.6538 68.1067 65.0538 67.92C65.4671 67.72 65.7671 67.3933 65.9538 66.94C66.1404 66.4867 66.2338 65.8733 66.2338 65.1C66.2338 64.2733 66.1538 63.6333 65.9938 63.18C65.8338 62.7133 65.5538 62.3933 65.1538 62.22C64.7671 62.0333 64.2138 61.94 63.4938 61.94H61.5337V68.2ZM69.5417 77L69.9417 60.8H71.4617L74.6617 74.86L77.9217 60.8H79.4417L79.8417 77H78.5817L78.2617 64.1L75.1617 77H74.1817L71.1217 64.12L70.8017 77H69.5417ZM90.1373 71.06V69.9H94.3773V71.06H90.1373ZM107.059 77.18C106.072 77.18 105.359 76.8067 104.919 76.06C104.492 75.3133 104.279 74.0733 104.279 72.34V70.2C104.279 69.1867 104.352 68.3133 104.499 67.58C104.646 66.8467 104.912 66.28 105.299 65.88C105.699 65.4667 106.266 65.26 106.999 65.26C107.452 65.26 107.846 65.3667 108.179 65.58C108.526 65.78 108.812 66.0067 109.039 66.26V60.8H110.499V77H109.039V76.18C108.812 76.4333 108.532 76.6667 108.199 76.88C107.879 77.08 107.499 77.18 107.059 77.18ZM107.359 76.02C107.679 76.02 107.979 75.9467 108.259 75.8C108.552 75.6533 108.812 75.4733 109.039 75.26V67.22C108.839 67.0333 108.592 66.8533 108.299 66.68C108.006 66.4933 107.679 66.4 107.319 66.4C106.679 66.4 106.252 66.6867 106.039 67.26C105.839 67.82 105.739 68.64 105.739 69.72V72.46C105.739 73.2333 105.779 73.8867 105.859 74.42C105.952 74.9533 106.112 75.3533 106.339 75.62C106.579 75.8867 106.919 76.02 107.359 76.02ZM115.621 77.18C114.834 77.18 114.214 77.0133 113.761 76.68C113.321 76.3333 113.007 75.84 112.821 75.2C112.634 74.5467 112.541 73.7533 112.541 72.82V69.62C112.541 68.6867 112.634 67.9 112.821 67.26C113.007 66.6067 113.321 66.1133 113.761 65.78C114.214 65.4333 114.834 65.26 115.621 65.26C116.434 65.26 117.061 65.4333 117.501 65.78C117.941 66.1133 118.254 66.6067 118.441 67.26C118.627 67.9 118.721 68.6867 118.721 69.62V72.82C118.721 73.7533 118.627 74.5467 118.441 75.2C118.254 75.84 117.941 76.3333 117.501 76.68C117.061 77.0133 116.434 77.18 115.621 77.18ZM115.621 76.08C116.127 76.08 116.494 75.9467 116.721 75.68C116.961 75.4133 117.107 75.04 117.161 74.56C117.214 74.0667 117.241 73.5133 117.241 72.9V69.54C117.241 68.9133 117.214 68.3667 117.161 67.9C117.107 67.42 116.961 67.0467 116.721 66.78C116.494 66.5 116.127 66.36 115.621 66.36C115.114 66.36 114.747 66.5 114.521 66.78C114.294 67.0467 114.154 67.42 114.101 67.9C114.047 68.3667 114.021 68.9133 114.021 69.54V72.9C114.021 73.5133 114.047 74.0667 114.101 74.56C114.154 75.04 114.294 75.4133 114.521 75.68C114.747 75.9467 115.114 76.08 115.621 76.08ZM120.749 77V65.44H122.209V66.64C122.582 66.24 123.002 65.9133 123.469 65.66C123.936 65.3933 124.442 65.26 124.989 65.26C125.376 65.26 125.702 65.36 125.969 65.56C126.236 65.7467 126.436 66.0267 126.569 66.4C126.702 66.76 126.769 67.2 126.769 67.72V77H125.309V68.04C125.309 67.44 125.216 67.02 125.029 66.78C124.856 66.5267 124.582 66.4 124.209 66.4C123.876 66.4 123.536 66.5 123.189 66.7C122.842 66.9 122.516 67.16 122.209 67.48V77H120.749ZM131.833 77.18C131.113 77.18 130.519 77.04 130.053 76.76C129.599 76.4667 129.259 75.9867 129.033 75.32C128.819 74.6533 128.713 73.7667 128.713 72.66V69.74C128.713 68.5933 128.826 67.7 129.053 67.06C129.279 66.4067 129.626 65.9467 130.093 65.68C130.559 65.4 131.146 65.26 131.853 65.26C132.666 65.26 133.286 65.4333 133.713 65.78C134.139 66.1267 134.433 66.6533 134.593 67.36C134.766 68.0533 134.853 68.9467 134.853 70.04V71.08H130.173V73.1C130.173 73.8467 130.226 74.44 130.333 74.88C130.453 75.3067 130.633 75.6133 130.873 75.8C131.126 75.9867 131.446 76.08 131.833 76.08C132.126 76.08 132.393 76.0267 132.633 75.92C132.873 75.8 133.059 75.58 133.193 75.26C133.339 74.9267 133.413 74.46 133.413 73.86V73.06H134.833V73.7C134.833 74.7533 134.613 75.6 134.173 76.24C133.746 76.8667 132.966 77.18 131.833 77.18ZM130.173 70.24H133.413V69.28C133.413 68.6667 133.379 68.1467 133.313 67.72C133.246 67.28 133.099 66.9467 132.873 66.72C132.659 66.48 132.313 66.36 131.833 66.36C131.433 66.36 131.106 66.4467 130.853 66.62C130.613 66.7933 130.439 67.1067 130.333 67.56C130.226 68 130.173 68.6333 130.173 69.46V70.24ZM144.445 77.18C143.978 77.18 143.572 77.06 143.225 76.82C142.892 76.58 142.612 76.3333 142.385 76.08V77H140.925V60.8H142.385V66.4C142.612 66.1067 142.905 65.8467 143.265 65.62C143.625 65.38 144.065 65.26 144.585 65.26C145.145 65.26 145.598 65.3933 145.945 65.66C146.292 65.9133 146.558 66.26 146.745 66.7C146.932 67.14 147.058 67.6333 147.125 68.18C147.192 68.7267 147.225 69.2867 147.225 69.86V72.3C147.225 73.2867 147.138 74.1467 146.965 74.88C146.805 75.6 146.525 76.1667 146.125 76.58C145.725 76.98 145.165 77.18 144.445 77.18ZM144.185 76.02C144.638 76.02 144.972 75.88 145.185 75.6C145.412 75.32 145.558 74.9067 145.625 74.36C145.705 73.8 145.745 73.1267 145.745 72.34V69.86C145.745 69.1133 145.705 68.4867 145.625 67.98C145.558 67.46 145.412 67.0667 145.185 66.8C144.972 66.5333 144.632 66.4 144.165 66.4C143.805 66.4 143.465 66.5 143.145 66.7C142.838 66.9 142.585 67.1 142.385 67.3V75.18C142.598 75.4067 142.858 75.6067 143.165 75.78C143.472 75.94 143.812 76.02 144.185 76.02ZM148.905 79.88V78.74C149.572 78.74 150.072 78.6867 150.405 78.58C150.752 78.4867 150.979 78.3467 151.085 78.16C151.205 77.9867 151.265 77.78 151.265 77.54C151.265 77.3267 151.225 77.0467 151.145 76.7C151.065 76.3533 150.979 75.9933 150.885 75.62L148.505 65.44H149.965L151.965 75.28L153.905 65.44H155.385L152.585 77.82C152.479 78.3133 152.285 78.7067 152.005 79C151.739 79.3067 151.379 79.5267 150.925 79.66C150.485 79.8067 149.939 79.88 149.285 79.88H148.905ZM161.085 77L161.485 60.8H163.005L166.205 74.86L169.465 60.8H170.985L171.385 77H170.125L169.805 64.1L166.705 77H165.725L162.665 64.12L162.345 77H161.085ZM176.636 77.18C175.85 77.18 175.23 77.0133 174.776 76.68C174.336 76.3333 174.023 75.84 173.836 75.2C173.65 74.5467 173.556 73.7533 173.556 72.82V69.62C173.556 68.6867 173.65 67.9 173.836 67.26C174.023 66.6067 174.336 66.1133 174.776 65.78C175.23 65.4333 175.85 65.26 176.636 65.26C177.45 65.26 178.076 65.4333 178.516 65.78C178.956 66.1133 179.27 66.6067 179.456 67.26C179.643 67.9 179.736 68.6867 179.736 69.62V72.82C179.736 73.7533 179.643 74.5467 179.456 75.2C179.27 75.84 178.956 76.3333 178.516 76.68C178.076 77.0133 177.45 77.18 176.636 77.18ZM176.636 76.08C177.143 76.08 177.51 75.9467 177.736 75.68C177.976 75.4133 178.123 75.04 178.176 74.56C178.23 74.0667 178.256 73.5133 178.256 72.9V69.54C178.256 68.9133 178.23 68.3667 178.176 67.9C178.123 67.42 177.976 67.0467 177.736 66.78C177.51 66.5 177.143 66.36 176.636 66.36C176.13 66.36 175.763 66.5 175.536 66.78C175.31 67.0467 175.17 67.42 175.116 67.9C175.063 68.3667 175.036 68.9133 175.036 69.54V72.9C175.036 73.5133 175.063 74.0667 175.116 74.56C175.17 75.04 175.31 75.4133 175.536 75.68C175.763 75.9467 176.13 76.08 176.636 76.08ZM181.765 77V65.44H183.125V66.62C183.511 66.1667 183.938 65.8267 184.405 65.6C184.871 65.36 185.351 65.24 185.845 65.24C186.245 65.24 186.611 65.3467 186.945 65.56C187.291 65.7733 187.538 66.1667 187.685 66.74C188.085 66.2467 188.525 65.8733 189.005 65.62C189.485 65.3667 189.991 65.24 190.525 65.24C190.858 65.24 191.171 65.32 191.465 65.48C191.771 65.64 192.018 65.9133 192.205 66.3C192.391 66.6867 192.485 67.2133 192.485 67.88V77H191.125V67.92C191.125 67.24 191.011 66.7933 190.785 66.58C190.571 66.3533 190.298 66.24 189.965 66.24C189.591 66.24 189.218 66.3467 188.845 66.56C188.471 66.7733 188.118 67.0667 187.785 67.44C187.798 67.5067 187.805 67.58 187.805 67.66C187.818 67.7267 187.825 67.8 187.825 67.88V77H186.445V67.92C186.445 67.24 186.331 66.7933 186.105 66.58C185.891 66.3533 185.618 66.24 185.285 66.24C184.925 66.24 184.558 66.3467 184.185 66.56C183.811 66.7733 183.458 67.06 183.125 67.42V77H181.765Z" fill="#101010"/>
<rect x="292.5" y="35.5" width="35" height="35" rx="8.5" fill="white" stroke="black" stroke-width="3"/>
<path d="M300 50.9615L307.345 59.1541C308.196 60.1034 309.706 60.0247 310.454 58.992L330 32" stroke="#101010" stroke-width="4"/>
</g>
<rect x="1.5" y="1.5" width="347" height="103" rx="10.5" stroke="#101010" stroke-width="3"/>
<defs>
<clipPath id="clip0_7_75">
<rect width="350" height="106" rx="12" fill="white"/>
</clipPath>
</defs>
</svg>
