<svg width="16" height="16" viewBox="0 0 16 16" fill="none" xmlns="http://www.w3.org/2000/svg">
<rect width="16" height="15.9414" fill="white"/>
<path d="M2 10.9597H13V14.7106H2V10.9597Z" fill="#FFD121"/>
<path d="M6.034 13.9963C5.662 13.9963 5.35 13.8703 5.098 13.6183C4.846 13.3663 4.72 13.0543 4.72 12.6823V6.31034C4.72 5.93834 4.846 5.62634 5.098 5.37434C5.35 5.12234 5.662 4.99634 6.034 4.99634H8.104V0.892337L9.796 0.496337V13.9963H6.034ZM7.06 12.3043H8.104V6.68834H7.06C6.892 6.68834 6.742 6.74834 6.61 6.86834C6.478 6.98834 6.412 7.14434 6.412 7.33634V11.6563C6.412 11.8243 6.478 11.9743 6.61 12.1063C6.742 12.2383 6.892 12.3043 7.06 12.3043Z" fill="black"/>
</svg>
