<svg width="202" height="154" viewBox="0 0 202 154" fill="none" xmlns="http://www.w3.org/2000/svg">
<g clip-path="url(#clip0_904_16)">
<path d="M10 94H192V112H10V94Z" fill="#FFD121"/>
<path d="M28.7147 108C26.6067 108 24.8387 107.286 23.4107 105.858C21.9827 104.43 21.2687 102.662 21.2687 100.554V64.446C21.2687 62.338 21.9827 60.57 23.4107 59.142C24.8387 57.714 26.6067 57 28.7147 57H40.4447V33.744L50.0327 31.5V108H28.7147ZM34.5287 98.412H40.4447V66.588H34.5287C33.5767 66.588 32.7267 66.928 31.9787 67.608C31.2307 68.288 30.8567 69.172 30.8567 70.26V94.74C30.8567 95.692 31.2307 96.542 31.9787 97.29C32.7267 98.038 33.5767 98.412 34.5287 98.412ZM71.5316 43.332V33.744L81.1196 31.5V41.088L71.5316 43.332ZM71.7356 108V59.244L81.3236 57V108H71.7356ZM109.119 108C107.011 108 105.243 107.286 103.815 105.858C102.387 104.43 101.673 102.662 101.673 100.554V64.446C101.673 62.338 102.387 60.57 103.815 59.142C105.243 57.714 107.011 57 109.119 57H120.849V33.744L130.437 31.5V108H109.119ZM114.933 98.412H120.849V66.588H114.933C113.981 66.588 113.131 66.928 112.383 67.608C111.635 68.288 111.261 69.172 111.261 70.26V94.74C111.261 95.692 111.635 96.542 112.383 97.29C113.131 98.038 113.981 98.412 114.933 98.412ZM159.382 108C157.274 108 155.506 107.286 154.078 105.858C152.65 104.43 151.936 102.662 151.936 100.554V57H161.524V94.74C161.524 95.692 161.898 96.542 162.646 97.29C163.394 98.038 164.244 98.412 165.196 98.412H171.112V57H180.7V108H159.382Z" fill="#201E1E"/>
</g>
<defs>
<clipPath id="clip0_904_16">
<rect width="202" height="154" fill="white"/>
</clipPath>
</defs>
</svg>
